<svg width="360" height="360" viewBox="0 0 360 360" fill="none" xmlns="http://www.w3.org/2000/svg">
<g filter="url(#filter0_d_159_31)">
<rect width="352" height="303" rx="15" fill="#E4EDF1" fill-opacity="0.75" shape-rendering="crispEdges"/>
</g>
<path d="M223.161 206.643C222.848 206.353 223.018 205.83 223.442 205.779L229.445 205.067C229.618 205.047 229.768 204.938 229.841 204.78L232.373 199.291C232.552 198.903 233.103 198.903 233.281 199.291L235.813 204.78C235.886 204.938 236.035 205.047 236.208 205.067L242.212 205.779C242.636 205.83 242.805 206.353 242.492 206.643L238.054 210.748C237.926 210.866 237.869 211.042 237.903 211.212L239.081 217.142C239.164 217.561 238.719 217.885 238.347 217.676L233.071 214.723C232.92 214.638 232.735 214.638 232.583 214.723L227.308 217.676C226.935 217.884 226.489 217.561 226.572 217.142L227.75 211.213C227.784 211.042 227.728 210.866 227.6 210.748L223.161 206.643Z" fill="#96ABB0" stroke="#1D1C1B" stroke-linecap="round" stroke-linejoin="round"/>
<path d="M195.161 206.643C194.848 206.353 195.018 205.83 195.442 205.779L201.445 205.067C201.618 205.047 201.768 204.938 201.841 204.78L204.373 199.291C204.552 198.903 205.103 198.903 205.281 199.291L207.813 204.78C207.886 204.938 208.035 205.047 208.208 205.067L214.212 205.779C214.636 205.83 214.805 206.353 214.492 206.643L210.054 210.748C209.926 210.866 209.869 211.042 209.903 211.212L211.081 217.142C211.164 217.561 210.719 217.885 210.347 217.676L205.071 214.723C204.92 214.638 204.735 214.638 204.583 214.723L199.308 217.676C198.935 217.884 198.489 217.561 198.572 217.142L199.75 211.213C199.784 211.042 199.728 210.866 199.6 210.748L195.161 206.643Z" fill="#F6B884" stroke="#1D1C1B" stroke-linecap="round" stroke-linejoin="round"/>
<path d="M137.161 206.643C136.848 206.353 137.018 205.83 137.442 205.779L143.445 205.067C143.618 205.047 143.768 204.938 143.841 204.78L146.373 199.291C146.552 198.903 147.103 198.903 147.281 199.291L149.813 204.78C149.886 204.938 150.035 205.047 150.208 205.067L156.212 205.779C156.636 205.83 156.805 206.353 156.492 206.643L152.054 210.748C151.926 210.866 151.869 211.042 151.903 211.212L153.081 217.142C153.164 217.561 152.719 217.885 152.347 217.676L147.071 214.723C146.92 214.638 146.735 214.638 146.583 214.723L141.308 217.676C140.935 217.884 140.489 217.561 140.572 217.142L141.75 211.213C141.784 211.042 141.728 210.866 141.6 210.748L137.161 206.643Z" fill="#F6B884" stroke="#1D1C1B" stroke-linecap="round" stroke-linejoin="round"/>
<path d="M109.161 206.643C108.848 206.353 109.018 205.83 109.442 205.779L115.445 205.067C115.618 205.047 115.768 204.938 115.841 204.78L118.373 199.291C118.552 198.903 119.103 198.903 119.281 199.291L121.813 204.78C121.886 204.938 122.035 205.047 122.208 205.067L128.212 205.779C128.636 205.83 128.805 206.353 128.492 206.643L124.054 210.748C123.926 210.866 123.869 211.042 123.903 211.212L125.081 217.142C125.164 217.561 124.719 217.885 124.347 217.676L119.071 214.723C118.92 214.638 118.735 214.638 118.583 214.723L113.308 217.676C112.935 217.884 112.489 217.561 112.572 217.142L113.75 211.213C113.784 211.042 113.728 210.866 113.6 210.748L109.161 206.643Z" fill="#F6B884" stroke="#1D1C1B" stroke-linecap="round" stroke-linejoin="round"/>
<path d="M165.178 206.643C164.832 206.353 165.02 205.83 165.487 205.779L172.101 205.067C172.291 205.047 172.457 204.938 172.537 204.78L175.327 199.291C175.524 198.903 176.131 198.903 176.328 199.291L179.117 204.78C179.198 204.938 179.362 205.047 179.552 205.067L186.167 205.779C186.634 205.83 186.821 206.353 186.476 206.643L181.586 210.748C181.445 210.866 181.383 211.042 181.42 211.212L182.718 217.142C182.809 217.561 182.319 217.885 181.908 217.676L176.096 214.723C175.929 214.638 175.726 214.638 175.559 214.723L169.746 217.676C169.336 217.884 168.844 217.561 168.936 217.142L170.234 211.213C170.271 211.042 170.209 210.866 170.068 210.748L165.178 206.643Z" fill="#F6B884" stroke="#1D1C1B" stroke-linecap="round" stroke-linejoin="round"/>
<path d="M48.0033 56V46.2H48.6053L53.1553 54.054H52.8333L57.3693 46.2H57.9573L57.9713 56H57.2713L57.2573 47.278H57.4533L53.1553 54.698H52.8053L48.4933 47.278H48.7033V56H48.0033ZM65.9914 56V53.312L66.1454 53.48H63.5554C62.6407 53.48 61.9267 53.284 61.4134 52.892C60.9094 52.4907 60.6574 51.9027 60.6574 51.128C60.6574 50.3067 60.9327 49.6953 61.4834 49.294C62.0341 48.8927 62.7621 48.692 63.6674 48.692H66.6354V56H65.9914ZM60.6154 56L62.6454 53.186H63.3874L61.3854 56H60.6154ZM65.9914 53.116V49.098L66.1454 49.308H63.7094C62.9627 49.308 62.3841 49.4527 61.9734 49.742C61.5627 50.0313 61.3574 50.5027 61.3574 51.156C61.3574 52.3507 62.1134 52.948 63.6254 52.948H66.1454L65.9914 53.116ZM69.6536 56V48.692H74.6516V49.322H70.1576L70.3536 49.126V56H69.6536ZM81.5377 56L78.4017 52.346L78.9897 52.01L82.3777 56H81.5377ZM76.1477 56V48.692H76.8477V56H76.1477ZM76.6237 52.612V52.01H78.9197V52.612H76.6237ZM79.0317 52.416L78.3877 52.304L81.3837 48.692H82.1537L79.0317 52.416ZM84.1048 56V48.692H84.8048V54.922L90.0128 48.692H90.6288V56H89.9288V49.77L84.7208 56H84.1048ZM96.6717 56.056C95.9344 56.056 95.2811 55.8973 94.7117 55.58C94.1517 55.2627 93.7084 54.824 93.3817 54.264C93.0644 53.704 92.9057 53.0647 92.9057 52.346C92.9057 51.618 93.0551 50.9787 93.3537 50.428C93.6617 49.868 94.0817 49.4293 94.6137 49.112C95.1457 48.7947 95.7431 48.636 96.4057 48.636C97.0684 48.636 97.6611 48.79 98.1837 49.098C98.7157 49.406 99.1311 49.84 99.4297 50.4C99.7377 50.9507 99.8917 51.59 99.8917 52.318C99.8917 52.346 99.8871 52.3787 99.8777 52.416C99.8777 52.444 99.8777 52.4767 99.8777 52.514H93.4237V51.968H99.4997L99.2197 52.234C99.2291 51.6647 99.1077 51.156 98.8557 50.708C98.6131 50.2507 98.2817 49.896 97.8617 49.644C97.4417 49.3827 96.9564 49.252 96.4057 49.252C95.8644 49.252 95.3791 49.3827 94.9497 49.644C94.5297 49.896 94.1984 50.2507 93.9557 50.708C93.7131 51.156 93.5917 51.6693 93.5917 52.248V52.374C93.5917 52.9713 93.7224 53.5033 93.9837 53.97C94.2544 54.4273 94.6231 54.7867 95.0897 55.048C95.5564 55.3 96.0884 55.426 96.6857 55.426C97.1524 55.426 97.5864 55.342 97.9877 55.174C98.3984 55.006 98.7437 54.7493 99.0237 54.404L99.4297 54.866C99.1124 55.258 98.7111 55.5567 98.2257 55.762C97.7497 55.958 97.2317 56.056 96.6717 56.056ZM101.479 58.002L102.025 55.636L102.095 56.042C101.918 56.042 101.768 55.986 101.647 55.874C101.535 55.762 101.479 55.622 101.479 55.454C101.479 55.286 101.535 55.146 101.647 55.034C101.768 54.922 101.908 54.866 102.067 54.866C102.244 54.866 102.384 54.9267 102.487 55.048C102.599 55.16 102.655 55.2953 102.655 55.454C102.655 55.5193 102.65 55.5847 102.641 55.65C102.632 55.7153 102.618 55.7807 102.599 55.846C102.58 55.9113 102.557 55.9953 102.529 56.098L101.983 58.002H101.479ZM108.577 56V48.692H109.277V52.024H114.233V48.692H114.933V56H114.233V52.64H109.277V56H108.577ZM120.98 56.056C120.243 56.056 119.59 55.8973 119.02 55.58C118.46 55.2627 118.017 54.824 117.69 54.264C117.373 53.704 117.214 53.0647 117.214 52.346C117.214 51.618 117.364 50.9787 117.662 50.428C117.97 49.868 118.39 49.4293 118.922 49.112C119.454 48.7947 120.052 48.636 120.714 48.636C121.377 48.636 121.97 48.79 122.492 49.098C123.024 49.406 123.44 49.84 123.738 50.4C124.046 50.9507 124.2 51.59 124.2 52.318C124.2 52.346 124.196 52.3787 124.186 52.416C124.186 52.444 124.186 52.4767 124.186 52.514H117.732V51.968H123.808L123.528 52.234C123.538 51.6647 123.416 51.156 123.164 50.708C122.922 50.2507 122.59 49.896 122.17 49.644C121.75 49.3827 121.265 49.252 120.714 49.252C120.173 49.252 119.688 49.3827 119.258 49.644C118.838 49.896 118.507 50.2507 118.264 50.708C118.022 51.156 117.9 51.6693 117.9 52.248V52.374C117.9 52.9713 118.031 53.5033 118.292 53.97C118.563 54.4273 118.932 54.7867 119.398 55.048C119.865 55.3 120.397 55.426 120.994 55.426C121.461 55.426 121.895 55.342 122.296 55.174C122.707 55.006 123.052 54.7493 123.332 54.404L123.738 54.866C123.421 55.258 123.02 55.5567 122.534 55.762C122.058 55.958 121.54 56.056 120.98 56.056ZM126.488 56V48.692H127.174L130.632 54.474H130.324L133.796 48.692H134.44V56H133.796V49.532L133.936 49.588L130.618 55.062H130.296L126.964 49.546L127.132 49.518V56H126.488ZM140.378 56.056C139.678 56.056 139.053 55.8973 138.502 55.58C137.961 55.2627 137.527 54.824 137.2 54.264C136.883 53.704 136.724 53.0647 136.724 52.346C136.724 51.618 136.883 50.9787 137.2 50.428C137.527 49.868 137.961 49.4293 138.502 49.112C139.053 48.7947 139.678 48.636 140.378 48.636C141.078 48.636 141.703 48.7947 142.254 49.112C142.805 49.4293 143.239 49.868 143.556 50.428C143.873 50.9787 144.032 51.618 144.032 52.346C144.032 53.0647 143.873 53.704 143.556 54.264C143.239 54.824 142.805 55.2627 142.254 55.58C141.703 55.8973 141.078 56.056 140.378 56.056ZM140.378 55.426C140.938 55.426 141.442 55.3 141.89 55.048C142.338 54.7867 142.688 54.4227 142.94 53.956C143.192 53.4893 143.318 52.9527 143.318 52.346C143.318 51.73 143.192 51.1933 142.94 50.736C142.688 50.2693 142.338 49.91 141.89 49.658C141.442 49.3967 140.938 49.266 140.378 49.266C139.818 49.266 139.314 49.3967 138.866 49.658C138.427 49.91 138.077 50.2693 137.816 50.736C137.564 51.1933 137.438 51.73 137.438 52.346C137.438 52.9527 137.564 53.4893 137.816 53.956C138.077 54.4227 138.427 54.7867 138.866 55.048C139.314 55.3 139.818 55.426 140.378 55.426ZM146.312 56V48.692H147.012V52.024H151.968V48.692H152.668V56H151.968V52.64H147.012V56H146.312ZM158.603 56.056C157.903 56.056 157.277 55.8973 156.727 55.58C156.185 55.2627 155.751 54.824 155.425 54.264C155.107 53.704 154.949 53.0647 154.949 52.346C154.949 51.618 155.107 50.9787 155.425 50.428C155.751 49.868 156.185 49.4293 156.727 49.112C157.277 48.7947 157.903 48.636 158.603 48.636C159.303 48.636 159.928 48.7947 160.479 49.112C161.029 49.4293 161.463 49.868 161.781 50.428C162.098 50.9787 162.257 51.618 162.257 52.346C162.257 53.0647 162.098 53.704 161.781 54.264C161.463 54.824 161.029 55.2627 160.479 55.58C159.928 55.8973 159.303 56.056 158.603 56.056ZM158.603 55.426C159.163 55.426 159.667 55.3 160.115 55.048C160.563 54.7867 160.913 54.4227 161.165 53.956C161.417 53.4893 161.543 52.9527 161.543 52.346C161.543 51.73 161.417 51.1933 161.165 50.736C160.913 50.2693 160.563 49.91 160.115 49.658C159.667 49.3967 159.163 49.266 158.603 49.266C158.043 49.266 157.539 49.3967 157.091 49.658C156.652 49.91 156.302 50.2693 156.041 50.736C155.789 51.1933 155.663 51.73 155.663 52.346C155.663 52.9527 155.789 53.4893 156.041 53.956C156.302 54.4227 156.652 54.7867 157.091 55.048C157.539 55.3 158.043 55.426 158.603 55.426ZM164.536 56V48.692H169.534V49.322H165.04L165.236 49.126V56H164.536ZM173.601 56.056C172.901 56.056 172.275 55.8973 171.725 55.58C171.183 55.2627 170.749 54.824 170.423 54.264C170.105 53.704 169.947 53.0647 169.947 52.346C169.947 51.618 170.105 50.9787 170.423 50.428C170.749 49.868 171.183 49.4293 171.725 49.112C172.275 48.7947 172.901 48.636 173.601 48.636C174.301 48.636 174.926 48.7947 175.477 49.112C176.027 49.4293 176.461 49.868 176.779 50.428C177.096 50.9787 177.255 51.618 177.255 52.346C177.255 53.0647 177.096 53.704 176.779 54.264C176.461 54.824 176.027 55.2627 175.477 55.58C174.926 55.8973 174.301 56.056 173.601 56.056ZM173.601 55.426C174.161 55.426 174.665 55.3 175.113 55.048C175.561 54.7867 175.911 54.4227 176.163 53.956C176.415 53.4893 176.541 52.9527 176.541 52.346C176.541 51.73 176.415 51.1933 176.163 50.736C175.911 50.2693 175.561 49.91 175.113 49.658C174.665 49.3967 174.161 49.266 173.601 49.266C173.041 49.266 172.537 49.3967 172.089 49.658C171.65 49.91 171.3 50.2693 171.039 50.736C170.787 51.1933 170.661 51.73 170.661 52.346C170.661 52.9527 170.787 53.4893 171.039 53.956C171.3 54.4227 171.65 54.7867 172.089 55.048C172.537 55.3 173.041 55.426 173.601 55.426ZM183.13 56V48.692H186.21C187.013 48.692 187.647 48.8507 188.114 49.168C188.581 49.4853 188.814 49.9473 188.814 50.554C188.814 51.1513 188.585 51.604 188.128 51.912C187.68 52.22 187.097 52.374 186.378 52.374L186.574 52.164C187.433 52.164 188.063 52.3227 188.464 52.64C188.865 52.9573 189.066 53.424 189.066 54.04C189.066 54.6653 188.837 55.1507 188.38 55.496C187.932 55.832 187.237 56 186.294 56H183.13ZM183.816 55.426H186.28C186.961 55.426 187.479 55.314 187.834 55.09C188.189 54.866 188.366 54.5067 188.366 54.012C188.366 53.508 188.207 53.144 187.89 52.92C187.582 52.6867 187.083 52.57 186.392 52.57H183.816V55.426ZM183.816 52.024H186.168C186.784 52.024 187.26 51.9073 187.596 51.674C187.941 51.4407 188.114 51.0953 188.114 50.638C188.114 50.1807 187.941 49.84 187.596 49.616C187.26 49.3827 186.784 49.266 186.168 49.266H183.816V52.024ZM190.11 55.972L190.18 55.37C190.236 55.3793 190.292 55.3933 190.348 55.412C190.413 55.4213 190.469 55.426 190.516 55.426C190.833 55.426 191.085 55.3093 191.272 55.076C191.459 54.8333 191.599 54.5113 191.692 54.11C191.795 53.7087 191.865 53.256 191.902 52.752C191.949 52.248 191.986 51.7347 192.014 51.212L192.14 48.692H197.264V56H196.564V49.098L196.76 49.322H192.588L192.77 49.084L192.658 51.268C192.621 51.9027 192.569 52.5093 192.504 53.088C192.439 53.6667 192.341 54.18 192.21 54.628C192.079 55.076 191.893 55.4307 191.65 55.692C191.407 55.944 191.095 56.07 190.712 56.07C190.619 56.07 190.521 56.0607 190.418 56.042C190.325 56.0233 190.222 56 190.11 55.972ZM204.852 56V54.334L204.824 54.082V51.338C204.824 50.6567 204.638 50.1387 204.264 49.784C203.9 49.4293 203.364 49.252 202.654 49.252C202.15 49.252 201.679 49.3407 201.24 49.518C200.811 49.686 200.442 49.9053 200.134 50.176L199.784 49.672C200.148 49.3453 200.587 49.0933 201.1 48.916C201.614 48.7293 202.15 48.636 202.71 48.636C203.616 48.636 204.311 48.8647 204.796 49.322C205.282 49.7793 205.524 50.4607 205.524 51.366V56H204.852ZM202.22 56.056C201.679 56.056 201.208 55.972 200.806 55.804C200.414 55.6267 200.111 55.3793 199.896 55.062C199.691 54.7447 199.588 54.3807 199.588 53.97C199.588 53.5967 199.672 53.2607 199.84 52.962C200.018 52.654 200.307 52.4067 200.708 52.22C201.11 52.024 201.646 51.926 202.318 51.926H205.006V52.472H202.332C201.576 52.472 201.044 52.612 200.736 52.892C200.438 53.172 200.288 53.522 200.288 53.942C200.288 54.4087 200.466 54.782 200.82 55.062C201.175 55.342 201.674 55.482 202.318 55.482C202.934 55.482 203.452 55.342 203.872 55.062C204.302 54.782 204.619 54.376 204.824 53.844L205.02 54.32C204.824 54.852 204.488 55.2767 204.012 55.594C203.546 55.902 202.948 56.056 202.22 56.056ZM217.006 56L214.374 52.346L214.962 52.01L217.846 56H217.006ZM212.61 52.612V52.01H214.878V52.612H212.61ZM215.018 52.416L214.36 52.304L216.866 48.692H217.636L215.018 52.416ZM208.004 56H207.15L210.048 52.01L210.636 52.346L208.004 56ZM212.848 56H212.148V48.692H212.848V56ZM212.372 52.612H210.118V52.01H212.372V52.612ZM209.992 52.416L207.374 48.692H208.144L210.65 52.304L209.992 52.416ZM219.661 56V48.692H220.361V52.024H225.317V48.692H226.017V56H225.317V52.64H220.361V56H219.661ZM236.054 56V48.692H236.754V56H236.054ZM231.924 51.352C232.839 51.3613 233.53 51.562 233.996 51.954C234.472 52.3367 234.71 52.9013 234.71 53.648C234.71 54.4227 234.458 55.0153 233.954 55.426C233.45 55.8367 232.722 56.0373 231.77 56.028L229.04 56V48.692H229.74V51.324L231.924 51.352ZM231.742 55.468C232.489 55.4773 233.054 55.328 233.436 55.02C233.819 54.712 234.01 54.2547 234.01 53.648C234.01 53.06 233.819 52.6213 233.436 52.332C233.063 52.0427 232.498 51.8933 231.742 51.884L229.74 51.87V55.44L231.742 55.468ZM242.783 56.056C242.046 56.056 241.392 55.8973 240.823 55.58C240.263 55.2627 239.82 54.824 239.493 54.264C239.176 53.704 239.017 53.0647 239.017 52.346C239.017 51.618 239.166 50.9787 239.465 50.428C239.773 49.868 240.193 49.4293 240.725 49.112C241.257 48.7947 241.854 48.636 242.517 48.636C243.18 48.636 243.772 48.79 244.295 49.098C244.827 49.406 245.242 49.84 245.541 50.4C245.849 50.9507 246.003 51.59 246.003 52.318C246.003 52.346 245.998 52.3787 245.989 52.416C245.989 52.444 245.989 52.4767 245.989 52.514H239.535V51.968H245.611L245.331 52.234C245.34 51.6647 245.219 51.156 244.967 50.708C244.724 50.2507 244.393 49.896 243.973 49.644C243.553 49.3827 243.068 49.252 242.517 49.252C241.976 49.252 241.49 49.3827 241.061 49.644C240.641 49.896 240.31 50.2507 240.067 50.708C239.824 51.156 239.703 51.6693 239.703 52.248V52.374C239.703 52.9713 239.834 53.5033 240.095 53.97C240.366 54.4273 240.734 54.7867 241.201 55.048C241.668 55.3 242.2 55.426 242.797 55.426C243.264 55.426 243.698 55.342 244.099 55.174C244.51 55.006 244.855 54.7493 245.135 54.404L245.541 54.866C245.224 55.258 244.822 55.5567 244.337 55.762C243.861 55.958 243.343 56.056 242.783 56.056ZM247.59 58.002L248.136 55.636L248.206 56.042C248.029 56.042 247.88 55.986 247.758 55.874C247.646 55.762 247.59 55.622 247.59 55.454C247.59 55.286 247.646 55.146 247.758 55.034C247.88 54.922 248.02 54.866 248.178 54.866C248.356 54.866 248.496 54.9267 248.598 55.048C248.71 55.16 248.766 55.2953 248.766 55.454C248.766 55.5193 248.762 55.5847 248.752 55.65C248.743 55.7153 248.729 55.7807 248.71 55.846C248.692 55.9113 248.668 55.9953 248.64 56.098L248.094 58.002H247.59ZM257.881 56.07C257.293 56.07 256.77 55.9673 256.313 55.762C255.865 55.5567 255.482 55.2533 255.165 54.852C254.857 54.4507 254.619 53.956 254.451 53.368C254.283 52.7707 254.199 52.0847 254.199 51.31C254.199 50.554 254.273 49.9053 254.423 49.364C254.572 48.8133 254.768 48.3513 255.011 47.978C255.263 47.5953 255.547 47.2827 255.865 47.04C256.182 46.7973 256.509 46.606 256.845 46.466C257.19 46.3167 257.531 46.2047 257.867 46.13L261.101 45.36L261.213 46.018L258.133 46.732C257.918 46.788 257.666 46.8627 257.377 46.956C257.097 47.04 256.807 47.1753 256.509 47.362C256.219 47.5393 255.949 47.7913 255.697 48.118C255.454 48.4353 255.253 48.846 255.095 49.35C254.945 49.854 254.871 50.4793 254.871 51.226C254.871 51.366 254.875 51.478 254.885 51.562C254.894 51.646 254.903 51.7393 254.913 51.842C254.931 51.9353 254.95 52.0753 254.969 52.262L254.647 52.094C254.703 51.478 254.885 50.9367 255.193 50.47C255.501 50.0033 255.902 49.6393 256.397 49.378C256.891 49.1167 257.451 48.986 258.077 48.986C258.758 48.986 259.36 49.1353 259.883 49.434C260.415 49.7233 260.83 50.134 261.129 50.666C261.427 51.1887 261.577 51.7953 261.577 52.486C261.577 53.1767 261.423 53.7927 261.115 54.334C260.816 54.8753 260.387 55.3 259.827 55.608C259.276 55.916 258.627 56.07 257.881 56.07ZM257.993 55.468C258.553 55.468 259.047 55.342 259.477 55.09C259.915 54.8287 260.256 54.474 260.499 54.026C260.741 53.578 260.863 53.0693 260.863 52.5C260.863 51.9307 260.741 51.4313 260.499 51.002C260.256 50.5727 259.915 50.2367 259.477 49.994C259.047 49.742 258.548 49.616 257.979 49.616C257.419 49.616 256.919 49.7373 256.481 49.98C256.051 50.2227 255.715 50.5587 255.473 50.988C255.23 51.4173 255.109 51.9167 255.109 52.486C255.109 53.0553 255.23 53.564 255.473 54.012C255.725 54.46 256.065 54.8147 256.495 55.076C256.933 55.3373 257.433 55.468 257.993 55.468ZM263.587 58.772C263.251 58.772 262.934 58.716 262.635 58.604C262.346 58.492 262.099 58.3287 261.893 58.114L262.243 57.582C262.43 57.778 262.631 57.9227 262.845 58.016C263.069 58.1093 263.321 58.156 263.601 58.156C263.937 58.156 264.231 58.0627 264.483 57.876C264.745 57.6893 264.987 57.3487 265.211 56.854L265.715 55.734L265.813 55.608L268.907 48.692H269.621L265.869 56.994C265.673 57.442 265.459 57.792 265.225 58.044C265.001 58.3053 264.754 58.492 264.483 58.604C264.213 58.716 263.914 58.772 263.587 58.772ZM265.701 56.182L262.313 48.692H263.055L266.135 55.566L265.701 56.182ZM276.052 55.664V49.322H272.244L272.16 51.142C272.141 51.6553 272.109 52.1687 272.062 52.682C272.015 53.186 271.941 53.6527 271.838 54.082C271.735 54.502 271.591 54.8427 271.404 55.104C271.227 55.3653 270.993 55.51 270.704 55.538L270.004 55.384C270.303 55.4027 270.545 55.2953 270.732 55.062C270.919 54.8193 271.063 54.4927 271.166 54.082C271.269 53.6713 271.343 53.2093 271.39 52.696C271.446 52.1733 271.488 51.6413 271.516 51.1L271.614 48.692H276.752V55.664H276.052ZM269.682 57.82V55.384H277.928V57.82H277.27V56H270.354V57.82H269.682ZM281.325 56V49.112L281.521 49.322H278.469V48.692H284.881V49.322H281.829L282.025 49.112V56H281.325ZM288.95 56.056C288.25 56.056 287.625 55.8973 287.074 55.58C286.533 55.2627 286.099 54.824 285.772 54.264C285.455 53.704 285.296 53.0647 285.296 52.346C285.296 51.618 285.455 50.9787 285.772 50.428C286.099 49.868 286.533 49.4293 287.074 49.112C287.625 48.7947 288.25 48.636 288.95 48.636C289.65 48.636 290.276 48.7947 290.826 49.112C291.377 49.4293 291.811 49.868 292.128 50.428C292.446 50.9787 292.604 51.618 292.604 52.346C292.604 53.0647 292.446 53.704 292.128 54.264C291.811 54.824 291.377 55.2627 290.826 55.58C290.276 55.8973 289.65 56.056 288.95 56.056ZM288.95 55.426C289.51 55.426 290.014 55.3 290.462 55.048C290.91 54.7867 291.26 54.4227 291.512 53.956C291.764 53.4893 291.89 52.9527 291.89 52.346C291.89 51.73 291.764 51.1933 291.512 50.736C291.26 50.2693 290.91 49.91 290.462 49.658C290.014 49.3967 289.51 49.266 288.95 49.266C288.39 49.266 287.886 49.3967 287.438 49.658C287 49.91 286.65 50.2693 286.388 50.736C286.136 51.1933 286.01 51.73 286.01 52.346C286.01 52.9527 286.136 53.4893 286.388 53.956C286.65 54.4227 287 54.7867 287.438 55.048C287.886 55.3 288.39 55.426 288.95 55.426ZM301.434 56.056C300.724 56.056 300.09 55.8973 299.53 55.58C298.979 55.2627 298.54 54.824 298.214 54.264C297.896 53.704 297.738 53.0647 297.738 52.346C297.738 51.618 297.896 50.974 298.214 50.414C298.54 49.854 298.979 49.42 299.53 49.112C300.09 48.7947 300.724 48.636 301.434 48.636C302.022 48.636 302.554 48.748 303.03 48.972C303.515 49.196 303.907 49.532 304.206 49.98L303.688 50.358C303.426 49.9847 303.1 49.7093 302.708 49.532C302.316 49.3547 301.891 49.266 301.434 49.266C300.864 49.266 300.351 49.3967 299.894 49.658C299.446 49.91 299.091 50.2693 298.83 50.736C298.578 51.1933 298.452 51.73 298.452 52.346C298.452 52.962 298.578 53.5033 298.83 53.97C299.091 54.4273 299.446 54.7867 299.894 55.048C300.351 55.3 300.864 55.426 301.434 55.426C301.891 55.426 302.316 55.3373 302.708 55.16C303.1 54.9827 303.426 54.7073 303.688 54.334L304.206 54.712C303.907 55.16 303.515 55.496 303.03 55.72C302.554 55.944 302.022 56.056 301.434 56.056ZM76.5032 78V70.692H82.8872V78H82.1872V71.112L82.3832 71.322H77.0072L77.2032 71.112V78H76.5032ZM89.5915 78.056C88.9475 78.056 88.3641 77.9067 87.8415 77.608C87.3281 77.3093 86.9175 76.8847 86.6095 76.334C86.3108 75.774 86.1615 75.1113 86.1615 74.346C86.1615 73.5807 86.3108 72.9227 86.6095 72.372C86.9175 71.812 87.3281 71.3827 87.8415 71.084C88.3641 70.7853 88.9475 70.636 89.5915 70.636C90.2821 70.636 90.8981 70.7947 91.4395 71.112C91.9901 71.42 92.4195 71.854 92.7275 72.414C93.0448 72.974 93.2035 73.618 93.2035 74.346C93.2035 75.074 93.0448 75.718 92.7275 76.278C92.4195 76.838 91.9901 77.2767 91.4395 77.594C90.8981 77.902 90.2821 78.056 89.5915 78.056ZM85.9235 80.716V70.692H86.5955V73.086L86.4835 74.36L86.6235 75.634V80.716H85.9235ZM89.5495 77.426C90.1095 77.426 90.6135 77.3 91.0615 77.048C91.5095 76.7867 91.8595 76.4227 92.1115 75.956C92.3728 75.4893 92.5035 74.9527 92.5035 74.346C92.5035 73.73 92.3728 73.1933 92.1115 72.736C91.8595 72.2693 91.5095 71.91 91.0615 71.658C90.6135 71.3967 90.1095 71.266 89.5495 71.266C88.9895 71.266 88.4855 71.3967 88.0375 71.658C87.5988 71.91 87.2488 72.2693 86.9875 72.736C86.7355 73.1933 86.6095 73.73 86.6095 74.346C86.6095 74.9527 86.7355 75.4893 86.9875 75.956C87.2488 76.4227 87.5988 76.7867 88.0375 77.048C88.4855 77.3 88.9895 77.426 89.5495 77.426ZM98.3918 78.056C97.6918 78.056 97.0664 77.8973 96.5158 77.58C95.9744 77.2627 95.5404 76.824 95.2138 76.264C94.8964 75.704 94.7378 75.0647 94.7378 74.346C94.7378 73.618 94.8964 72.9787 95.2138 72.428C95.5404 71.868 95.9744 71.4293 96.5158 71.112C97.0664 70.7947 97.6918 70.636 98.3918 70.636C99.0918 70.636 99.7171 70.7947 100.268 71.112C100.818 71.4293 101.252 71.868 101.57 72.428C101.887 72.9787 102.046 73.618 102.046 74.346C102.046 75.0647 101.887 75.704 101.57 76.264C101.252 76.824 100.818 77.2627 100.268 77.58C99.7171 77.8973 99.0918 78.056 98.3918 78.056ZM98.3918 77.426C98.9518 77.426 99.4558 77.3 99.9038 77.048C100.352 76.7867 100.702 76.4227 100.954 75.956C101.206 75.4893 101.332 74.9527 101.332 74.346C101.332 73.73 101.206 73.1933 100.954 72.736C100.702 72.2693 100.352 71.91 99.9038 71.658C99.4558 71.3967 98.9518 71.266 98.3918 71.266C97.8318 71.266 97.3278 71.3967 96.8798 71.658C96.4411 71.91 96.0911 72.2693 95.8298 72.736C95.5778 73.1933 95.4518 73.73 95.4518 74.346C95.4518 74.9527 95.5778 75.4893 95.8298 75.956C96.0911 76.4227 96.4411 76.7867 96.8798 77.048C97.3278 77.3 97.8318 77.426 98.3918 77.426ZM104.325 78V70.692H110.709V78H110.009V71.112L110.205 71.322H104.829L105.025 71.112V78H104.325ZM113.732 78V70.692H114.432V76.922L119.64 70.692H120.256V78H119.556V71.77L114.348 78H113.732ZM124.605 78V71.112L124.801 71.322H121.749V70.692H128.161V71.322H125.109L125.305 71.112V78H124.605ZM135.049 78L131.913 74.346L132.501 74.01L135.889 78H135.049ZM129.659 78V70.692H130.359V78H129.659ZM130.135 74.612V74.01H132.431V74.612H130.135ZM132.543 74.416L131.899 74.304L134.895 70.692H135.665L132.543 74.416ZM140.269 78.056C139.569 78.056 138.943 77.8973 138.393 77.58C137.851 77.2627 137.417 76.824 137.091 76.264C136.773 75.704 136.615 75.0647 136.615 74.346C136.615 73.618 136.773 72.9787 137.091 72.428C137.417 71.868 137.851 71.4293 138.393 71.112C138.943 70.7947 139.569 70.636 140.269 70.636C140.969 70.636 141.594 70.7947 142.145 71.112C142.695 71.4293 143.129 71.868 143.447 72.428C143.764 72.9787 143.923 73.618 143.923 74.346C143.923 75.0647 143.764 75.704 143.447 76.264C143.129 76.824 142.695 77.2627 142.145 77.58C141.594 77.8973 140.969 78.056 140.269 78.056ZM140.269 77.426C140.829 77.426 141.333 77.3 141.781 77.048C142.229 76.7867 142.579 76.4227 142.831 75.956C143.083 75.4893 143.209 74.9527 143.209 74.346C143.209 73.73 143.083 73.1933 142.831 72.736C142.579 72.2693 142.229 71.91 141.781 71.658C141.333 71.3967 140.829 71.266 140.269 71.266C139.709 71.266 139.205 71.3967 138.757 71.658C138.318 71.91 137.968 72.2693 137.707 72.736C137.455 73.1933 137.329 73.73 137.329 74.346C137.329 74.9527 137.455 75.4893 137.707 75.956C137.968 76.4227 138.318 76.7867 138.757 77.048C139.205 77.3 139.709 77.426 140.269 77.426ZM146.202 78V70.692H146.902V76.922L152.11 70.692H152.726V78H152.026V71.77L146.818 78H146.202ZM149.436 69.572C148.867 69.572 148.396 69.4227 148.022 69.124C147.658 68.816 147.467 68.3913 147.448 67.85H147.966C147.985 68.2327 148.13 68.536 148.4 68.76C148.68 68.984 149.026 69.096 149.436 69.096C149.847 69.096 150.188 68.984 150.458 68.76C150.738 68.536 150.883 68.2327 150.892 67.85H151.424C151.415 68.3913 151.224 68.816 150.85 69.124C150.486 69.4227 150.015 69.572 149.436 69.572ZM155.633 78.056C155.475 78.056 155.335 78 155.213 77.888C155.101 77.7667 155.045 77.622 155.045 77.454C155.045 77.286 155.101 77.146 155.213 77.034C155.335 76.922 155.475 76.866 155.633 76.866C155.792 76.866 155.927 76.922 156.039 77.034C156.161 77.146 156.221 77.286 156.221 77.454C156.221 77.622 156.161 77.7667 156.039 77.888C155.927 78 155.792 78.056 155.633 78.056ZM168.892 77.65V68.844H163.88L163.796 71.476C163.768 72.2507 163.721 72.9927 163.656 73.702C163.591 74.4113 163.493 75.0507 163.362 75.62C163.231 76.18 163.049 76.6327 162.816 76.978C162.592 77.3233 162.307 77.51 161.962 77.538L161.136 77.356C161.528 77.384 161.845 77.2487 162.088 76.95C162.34 76.6513 162.536 76.2267 162.676 75.676C162.825 75.1253 162.933 74.486 162.998 73.758C163.063 73.03 163.11 72.2507 163.138 71.42L163.236 68.2H169.606V77.65H168.892ZM160.772 80.24L160.786 77.356H171.118V80.24H170.432V78H161.472L161.458 80.24H160.772ZM175.941 78.056C175.204 78.056 174.551 77.8973 173.981 77.58C173.421 77.2627 172.978 76.824 172.651 76.264C172.334 75.704 172.175 75.0647 172.175 74.346C172.175 73.618 172.325 72.9787 172.623 72.428C172.931 71.868 173.351 71.4293 173.883 71.112C174.415 70.7947 175.013 70.636 175.675 70.636C176.338 70.636 176.931 70.79 177.453 71.098C177.985 71.406 178.401 71.84 178.699 72.4C179.007 72.9507 179.161 73.59 179.161 74.318C179.161 74.346 179.157 74.3787 179.147 74.416C179.147 74.444 179.147 74.4767 179.147 74.514H172.693V73.968H178.769L178.489 74.234C178.499 73.6647 178.377 73.156 178.125 72.708C177.883 72.2507 177.551 71.896 177.131 71.644C176.711 71.3827 176.226 71.252 175.675 71.252C175.134 71.252 174.649 71.3827 174.219 71.644C173.799 71.896 173.468 72.2507 173.225 72.708C172.983 73.156 172.861 73.6693 172.861 74.248V74.374C172.861 74.9713 172.992 75.5033 173.253 75.97C173.524 76.4273 173.893 76.7867 174.359 77.048C174.826 77.3 175.358 77.426 175.955 77.426C176.422 77.426 176.856 77.342 177.257 77.174C177.668 77.006 178.013 76.7493 178.293 76.404L178.699 76.866C178.382 77.258 177.981 77.5567 177.495 77.762C177.019 77.958 176.501 78.056 175.941 78.056ZM182.437 78V71.112L182.633 71.322H179.581V70.692H185.993V71.322H182.941L183.137 71.112V78H182.437ZM187.491 78V70.692H188.191V76.922L193.399 70.692H194.015V78H193.315V71.77L188.107 78H187.491ZM200.63 78V70.692H201.33V74.024H206.286V70.692H206.986V78H206.286V74.64H201.33V78H200.63ZM214.573 78V76.334L214.545 76.082V73.338C214.545 72.6567 214.358 72.1387 213.985 71.784C213.621 71.4293 213.084 71.252 212.375 71.252C211.871 71.252 211.4 71.3407 210.961 71.518C210.532 71.686 210.163 71.9053 209.855 72.176L209.505 71.672C209.869 71.3453 210.308 71.0933 210.821 70.916C211.334 70.7293 211.871 70.636 212.431 70.636C213.336 70.636 214.032 70.8647 214.517 71.322C215.002 71.7793 215.245 72.4607 215.245 73.366V78H214.573ZM211.941 78.056C211.4 78.056 210.928 77.972 210.527 77.804C210.135 77.6267 209.832 77.3793 209.617 77.062C209.412 76.7447 209.309 76.3807 209.309 75.97C209.309 75.5967 209.393 75.2607 209.561 74.962C209.738 74.654 210.028 74.4067 210.429 74.22C210.83 74.024 211.367 73.926 212.039 73.926H214.727V74.472H212.053C211.297 74.472 210.765 74.612 210.457 74.892C210.158 75.172 210.009 75.522 210.009 75.942C210.009 76.4087 210.186 76.782 210.541 77.062C210.896 77.342 211.395 77.482 212.039 77.482C212.655 77.482 213.173 77.342 213.593 77.062C214.022 76.782 214.34 76.376 214.545 75.844L214.741 76.32C214.545 76.852 214.209 77.2767 213.733 77.594C213.266 77.902 212.669 78.056 211.941 78.056ZM223.491 78.07C222.987 78.07 222.478 77.9907 221.965 77.832C221.452 77.6733 220.999 77.4307 220.607 77.104L220.873 76.586C221.228 76.8847 221.638 77.1087 222.105 77.258C222.572 77.398 223.038 77.4633 223.505 77.454C223.981 77.454 224.396 77.384 224.751 77.244C225.115 77.104 225.395 76.9127 225.591 76.67C225.787 76.4273 225.885 76.1567 225.885 75.858C225.885 75.4193 225.689 75.0787 225.297 74.836C224.905 74.5933 224.368 74.472 223.687 74.472H222.511V73.94H223.659C224.051 73.94 224.396 73.8887 224.695 73.786C225.003 73.6833 225.241 73.534 225.409 73.338C225.586 73.1327 225.675 72.8947 225.675 72.624C225.675 72.3253 225.572 72.0733 225.367 71.868C225.171 71.6533 224.9 71.4947 224.555 71.392C224.219 71.2893 223.841 71.238 223.421 71.238C223.057 71.2473 222.679 71.3033 222.287 71.406C221.904 71.5087 221.526 71.6627 221.153 71.868L220.929 71.308C221.34 71.084 221.755 70.916 222.175 70.804C222.595 70.692 223.02 70.6313 223.449 70.622C223.99 70.6127 224.485 70.6873 224.933 70.846C225.381 70.9953 225.736 71.2147 225.997 71.504C226.258 71.784 226.389 72.1247 226.389 72.526C226.389 72.89 226.277 73.2073 226.053 73.478C225.838 73.7393 225.54 73.9447 225.157 74.094C224.784 74.2433 224.364 74.318 223.897 74.318L223.953 74.094C224.793 74.094 225.442 74.2573 225.899 74.584C226.366 74.9107 226.599 75.3493 226.599 75.9C226.599 76.3387 226.459 76.7213 226.179 77.048C225.899 77.3747 225.521 77.6267 225.045 77.804C224.578 77.9813 224.06 78.07 223.491 78.07ZM233.618 78V76.334L233.59 76.082V73.338C233.59 72.6567 233.403 72.1387 233.03 71.784C232.666 71.4293 232.129 71.252 231.42 71.252C230.916 71.252 230.445 71.3407 230.006 71.518C229.577 71.686 229.208 71.9053 228.9 72.176L228.55 71.672C228.914 71.3453 229.353 71.0933 229.866 70.916C230.379 70.7293 230.916 70.636 231.476 70.636C232.381 70.636 233.077 70.8647 233.562 71.322C234.047 71.7793 234.29 72.4607 234.29 73.366V78H233.618ZM230.986 78.056C230.445 78.056 229.973 77.972 229.572 77.804C229.18 77.6267 228.877 77.3793 228.662 77.062C228.457 76.7447 228.354 76.3807 228.354 75.97C228.354 75.5967 228.438 75.2607 228.606 74.962C228.783 74.654 229.073 74.4067 229.474 74.22C229.875 74.024 230.412 73.926 231.084 73.926H233.772V74.472H231.098C230.342 74.472 229.81 74.612 229.502 74.892C229.203 75.172 229.054 75.522 229.054 75.942C229.054 76.4087 229.231 76.782 229.586 77.062C229.941 77.342 230.44 77.482 231.084 77.482C231.7 77.482 232.218 77.342 232.638 77.062C233.067 76.782 233.385 76.376 233.59 75.844L233.786 76.32C233.59 76.852 233.254 77.2767 232.778 77.594C232.311 77.902 231.714 78.056 230.986 78.056ZM237.134 78V70.692H240.214C241.017 70.692 241.651 70.8507 242.118 71.168C242.585 71.4853 242.818 71.9473 242.818 72.554C242.818 73.1513 242.589 73.604 242.132 73.912C241.684 74.22 241.101 74.374 240.382 74.374L240.578 74.164C241.437 74.164 242.067 74.3227 242.468 74.64C242.869 74.9573 243.07 75.424 243.07 76.04C243.07 76.6653 242.841 77.1507 242.384 77.496C241.936 77.832 241.241 78 240.298 78H237.134ZM237.82 77.426H240.284C240.965 77.426 241.483 77.314 241.838 77.09C242.193 76.866 242.37 76.5067 242.37 76.012C242.37 75.508 242.211 75.144 241.894 74.92C241.586 74.6867 241.087 74.57 240.396 74.57H237.82V77.426ZM237.82 74.024H240.172C240.788 74.024 241.264 73.9073 241.6 73.674C241.945 73.4407 242.118 73.0953 242.118 72.638C242.118 72.1807 241.945 71.84 241.6 71.616C241.264 71.3827 240.788 71.266 240.172 71.266H237.82V74.024ZM246.886 78V71.112L247.082 71.322H244.03V70.692H250.442V71.322H247.39L247.586 71.112V78H246.886ZM255.623 78.056C254.979 78.056 254.395 77.9067 253.873 77.608C253.359 77.3093 252.949 76.8847 252.641 76.334C252.342 75.774 252.193 75.1113 252.193 74.346C252.193 73.5807 252.342 72.9227 252.641 72.372C252.949 71.812 253.359 71.3827 253.873 71.084C254.395 70.7853 254.979 70.636 255.623 70.636C256.313 70.636 256.929 70.7947 257.471 71.112C258.021 71.42 258.451 71.854 258.759 72.414C259.076 72.974 259.235 73.618 259.235 74.346C259.235 75.074 259.076 75.718 258.759 76.278C258.451 76.838 258.021 77.2767 257.471 77.594C256.929 77.902 256.313 78.056 255.623 78.056ZM251.955 80.716V70.692H252.627V73.086L252.515 74.36L252.655 75.634V80.716H251.955ZM255.581 77.426C256.141 77.426 256.645 77.3 257.093 77.048C257.541 76.7867 257.891 76.4227 258.143 75.956C258.404 75.4893 258.535 74.9527 258.535 74.346C258.535 73.73 258.404 73.1933 258.143 72.736C257.891 72.2693 257.541 71.91 257.093 71.658C256.645 71.3967 256.141 71.266 255.581 71.266C255.021 71.266 254.517 71.3967 254.069 71.658C253.63 71.91 253.28 72.2693 253.019 72.736C252.767 73.1933 252.641 73.73 252.641 74.346C252.641 74.9527 252.767 75.4893 253.019 75.956C253.28 76.4227 253.63 76.7867 254.069 77.048C254.517 77.3 255.021 77.426 255.581 77.426ZM266.048 78V76.334L266.02 76.082V73.338C266.02 72.6567 265.833 72.1387 265.46 71.784C265.096 71.4293 264.559 71.252 263.85 71.252C263.346 71.252 262.874 71.3407 262.436 71.518C262.006 71.686 261.638 71.9053 261.33 72.176L260.98 71.672C261.344 71.3453 261.782 71.0933 262.296 70.916C262.809 70.7293 263.346 70.636 263.906 70.636C264.811 70.636 265.506 70.8647 265.992 71.322C266.477 71.7793 266.72 72.4607 266.72 73.366V78H266.048ZM263.416 78.056C262.874 78.056 262.403 77.972 262.002 77.804C261.61 77.6267 261.306 77.3793 261.092 77.062C260.886 76.7447 260.784 76.3807 260.784 75.97C260.784 75.5967 260.868 75.2607 261.036 74.962C261.213 74.654 261.502 74.4067 261.904 74.22C262.305 74.024 262.842 73.926 263.514 73.926H266.202V74.472H263.528C262.772 74.472 262.24 74.612 261.932 74.892C261.633 75.172 261.484 75.522 261.484 75.942C261.484 76.4087 261.661 76.782 262.016 77.062C262.37 77.342 262.87 77.482 263.514 77.482C264.13 77.482 264.648 77.342 265.068 77.062C265.497 76.782 265.814 76.376 266.02 75.844L266.216 76.32C266.02 76.852 265.684 77.2767 265.208 77.594C264.741 77.902 264.144 78.056 263.416 78.056ZM274.954 78L271.818 74.346L272.406 74.01L275.794 78H274.954ZM269.564 78V70.692H270.264V78H269.564ZM270.04 74.612V74.01H272.336V74.612H270.04ZM272.448 74.416L271.804 74.304L274.8 70.692H275.57L272.448 74.416ZM57.6232 100.056C56.9139 100.056 56.2792 99.8973 55.7192 99.58C55.1686 99.2627 54.7299 98.824 54.4032 98.264C54.0859 97.704 53.9272 97.0647 53.9272 96.346C53.9272 95.618 54.0859 94.974 54.4032 94.414C54.7299 93.854 55.1686 93.42 55.7192 93.112C56.2792 92.7947 56.9139 92.636 57.6232 92.636C58.2112 92.636 58.7432 92.748 59.2192 92.972C59.7046 93.196 60.0966 93.532 60.3952 93.98L59.8772 94.358C59.6159 93.9847 59.2892 93.7093 58.8972 93.532C58.5052 93.3547 58.0806 93.266 57.6232 93.266C57.0539 93.266 56.5406 93.3967 56.0832 93.658C55.6352 93.91 55.2806 94.2693 55.0192 94.736C54.7672 95.1933 54.6412 95.73 54.6412 96.346C54.6412 96.962 54.7672 97.5033 55.0192 97.97C55.2806 98.4273 55.6352 98.7867 56.0832 99.048C56.5406 99.3 57.0539 99.426 57.6232 99.426C58.0806 99.426 58.5052 99.3373 58.8972 99.16C59.2892 98.9827 59.6159 98.7073 59.8772 98.334L60.3952 98.712C60.0966 99.16 59.7046 99.496 59.2192 99.72C58.7432 99.944 58.2112 100.056 57.6232 100.056ZM62.4622 100V92.692H63.1482L66.6062 98.474H66.2982L69.7702 92.692H70.4142V100H69.7702V93.532L69.9102 93.588L66.5922 99.062H66.2702L62.9382 93.546L63.1062 93.518V100H62.4622ZM76.3527 100.056C75.6527 100.056 75.0274 99.8973 74.4767 99.58C73.9354 99.2627 73.5014 98.824 73.1747 98.264C72.8574 97.704 72.6987 97.0647 72.6987 96.346C72.6987 95.618 72.8574 94.9787 73.1747 94.428C73.5014 93.868 73.9354 93.4293 74.4767 93.112C75.0274 92.7947 75.6527 92.636 76.3527 92.636C77.0527 92.636 77.678 92.7947 78.2287 93.112C78.7794 93.4293 79.2134 93.868 79.5307 94.428C79.848 94.9787 80.0067 95.618 80.0067 96.346C80.0067 97.0647 79.848 97.704 79.5307 98.264C79.2134 98.824 78.7794 99.2627 78.2287 99.58C77.678 99.8973 77.0527 100.056 76.3527 100.056ZM76.3527 99.426C76.9127 99.426 77.4167 99.3 77.8647 99.048C78.3127 98.7867 78.6627 98.4227 78.9147 97.956C79.1667 97.4893 79.2927 96.9527 79.2927 96.346C79.2927 95.73 79.1667 95.1933 78.9147 94.736C78.6627 94.2693 78.3127 93.91 77.8647 93.658C77.4167 93.3967 76.9127 93.266 76.3527 93.266C75.7927 93.266 75.2887 93.3967 74.8407 93.658C74.402 93.91 74.052 94.2693 73.7907 94.736C73.5387 95.1933 73.4127 95.73 73.4127 96.346C73.4127 96.9527 73.5387 97.4893 73.7907 97.956C74.052 98.4227 74.402 98.7867 74.8407 99.048C75.2887 99.3 75.7927 99.426 76.3527 99.426ZM80.8171 99.972L80.8871 99.37C80.9431 99.3793 80.9991 99.3933 81.0551 99.412C81.1204 99.4213 81.1764 99.426 81.2231 99.426C81.5404 99.426 81.7924 99.3093 81.9791 99.076C82.1657 98.8333 82.3057 98.5113 82.3991 98.11C82.5017 97.7087 82.5717 97.256 82.6091 96.752C82.6557 96.248 82.6931 95.7347 82.7211 95.212L82.8471 92.692H87.9711V100H87.2711V93.098L87.4671 93.322H83.2951L83.4771 93.084L83.3651 95.268C83.3277 95.9027 83.2764 96.5093 83.2111 97.088C83.1457 97.6667 83.0477 98.18 82.9171 98.628C82.7864 99.076 82.5997 99.4307 82.3571 99.692C82.1144 99.944 81.8017 100.07 81.4191 100.07C81.3257 100.07 81.2277 100.061 81.1251 100.042C81.0317 100.023 80.9291 100 80.8171 99.972ZM93.9074 100.056C93.2074 100.056 92.5821 99.8973 92.0314 99.58C91.4901 99.2627 91.0561 98.824 90.7294 98.264C90.4121 97.704 90.2534 97.0647 90.2534 96.346C90.2534 95.618 90.4121 94.9787 90.7294 94.428C91.0561 93.868 91.4901 93.4293 92.0314 93.112C92.5821 92.7947 93.2074 92.636 93.9074 92.636C94.6074 92.636 95.2327 92.7947 95.7834 93.112C96.3341 93.4293 96.7681 93.868 97.0854 94.428C97.4027 94.9787 97.5614 95.618 97.5614 96.346C97.5614 97.0647 97.4027 97.704 97.0854 98.264C96.7681 98.824 96.3341 99.2627 95.7834 99.58C95.2327 99.8973 94.6074 100.056 93.9074 100.056ZM93.9074 99.426C94.4674 99.426 94.9714 99.3 95.4194 99.048C95.8674 98.7867 96.2174 98.4227 96.4694 97.956C96.7214 97.4893 96.8474 96.9527 96.8474 96.346C96.8474 95.73 96.7214 95.1933 96.4694 94.736C96.2174 94.2693 95.8674 93.91 95.4194 93.658C94.9714 93.3967 94.4674 93.266 93.9074 93.266C93.3474 93.266 92.8434 93.3967 92.3954 93.658C91.9567 93.91 91.6067 94.2693 91.3454 94.736C91.0934 95.1933 90.9674 95.73 90.9674 96.346C90.9674 96.9527 91.0934 97.4893 91.3454 97.956C91.6067 98.4227 91.9567 98.7867 92.3954 99.048C92.8434 99.3 93.3474 99.426 93.9074 99.426ZM98.3718 99.972L98.4418 99.37C98.4978 99.3793 98.5538 99.3933 98.6098 99.412C98.6751 99.4213 98.7311 99.426 98.7778 99.426C99.0951 99.426 99.3471 99.3093 99.5338 99.076C99.7204 98.8333 99.8604 98.5113 99.9538 98.11C100.056 97.7087 100.126 97.256 100.164 96.752C100.21 96.248 100.248 95.7347 100.276 95.212L100.402 92.692H105.526V100H104.826V93.098L105.022 93.322H100.85L101.032 93.084L100.92 95.268C100.882 95.9027 100.831 96.5093 100.766 97.088C100.7 97.6667 100.602 98.18 100.472 98.628C100.341 99.076 100.154 99.4307 99.9118 99.692C99.6691 99.944 99.3564 100.07 98.9738 100.07C98.8804 100.07 98.7824 100.061 98.6798 100.042C98.5864 100.023 98.4838 100 98.3718 99.972ZM108.55 100V92.692H109.25V98.922L114.458 92.692H115.074V100H114.374V93.77L109.166 100H108.55ZM121.689 100V92.692H124.769C125.571 92.692 126.206 92.8507 126.673 93.168C127.139 93.4853 127.373 93.9473 127.373 94.554C127.373 95.1513 127.144 95.604 126.687 95.912C126.239 96.22 125.655 96.374 124.937 96.374L125.133 96.164C125.991 96.164 126.621 96.3227 127.023 96.64C127.424 96.9573 127.625 97.424 127.625 98.04C127.625 98.6653 127.396 99.1507 126.939 99.496C126.491 99.832 125.795 100 124.853 100H121.689ZM122.375 99.426H124.839C125.52 99.426 126.038 99.314 126.393 99.09C126.747 98.866 126.925 98.5067 126.925 98.012C126.925 97.508 126.766 97.144 126.449 96.92C126.141 96.6867 125.641 96.57 124.951 96.57H122.375V99.426ZM122.375 96.024H124.727C125.343 96.024 125.819 95.9073 126.155 95.674C126.5 95.4407 126.673 95.0953 126.673 94.638C126.673 94.1807 126.5 93.84 126.155 93.616C125.819 93.3827 125.343 93.266 124.727 93.266H122.375V96.024ZM136.66 100.056C135.951 100.056 135.316 99.8973 134.756 99.58C134.206 99.2627 133.767 98.824 133.44 98.264C133.123 97.704 132.964 97.0647 132.964 96.346C132.964 95.618 133.123 94.974 133.44 94.414C133.767 93.854 134.206 93.42 134.756 93.112C135.316 92.7947 135.951 92.636 136.66 92.636C137.248 92.636 137.78 92.748 138.256 92.972C138.742 93.196 139.134 93.532 139.432 93.98L138.914 94.358C138.653 93.9847 138.326 93.7093 137.934 93.532C137.542 93.3547 137.118 93.266 136.66 93.266C136.091 93.266 135.578 93.3967 135.12 93.658C134.672 93.91 134.318 94.2693 134.056 94.736C133.804 95.1933 133.678 95.73 133.678 96.346C133.678 96.962 133.804 97.5033 134.056 97.97C134.318 98.4273 134.672 98.7867 135.12 99.048C135.578 99.3 136.091 99.426 136.66 99.426C137.118 99.426 137.542 99.3373 137.934 99.16C138.326 98.9827 138.653 98.7073 138.914 98.334L139.432 98.712C139.134 99.16 138.742 99.496 138.256 99.72C137.78 99.944 137.248 100.056 136.66 100.056ZM144.4 100.056C143.663 100.056 143.01 99.8973 142.44 99.58C141.88 99.2627 141.437 98.824 141.11 98.264C140.793 97.704 140.634 97.0647 140.634 96.346C140.634 95.618 140.784 94.9787 141.082 94.428C141.39 93.868 141.81 93.4293 142.342 93.112C142.874 92.7947 143.472 92.636 144.134 92.636C144.797 92.636 145.39 92.79 145.912 93.098C146.444 93.406 146.86 93.84 147.158 94.4C147.466 94.9507 147.62 95.59 147.62 96.318C147.62 96.346 147.616 96.3787 147.606 96.416C147.606 96.444 147.606 96.4767 147.606 96.514H141.152V95.968H147.228L146.948 96.234C146.958 95.6647 146.836 95.156 146.584 94.708C146.342 94.2507 146.01 93.896 145.59 93.644C145.17 93.3827 144.685 93.252 144.134 93.252C143.593 93.252 143.108 93.3827 142.678 93.644C142.258 93.896 141.927 94.2507 141.684 94.708C141.442 95.156 141.32 95.6693 141.32 96.248V96.374C141.32 96.9713 141.451 97.5033 141.712 97.97C141.983 98.4273 142.352 98.7867 142.818 99.048C143.285 99.3 143.817 99.426 144.414 99.426C144.881 99.426 145.315 99.342 145.716 99.174C146.127 99.006 146.472 98.7493 146.752 98.404L147.158 98.866C146.841 99.258 146.44 99.5567 145.954 99.762C145.478 99.958 144.96 100.056 144.4 100.056ZM155.298 100L152.162 96.346L152.75 96.01L156.138 100H155.298ZM149.908 100V92.692H150.608V100H149.908ZM150.384 96.612V96.01H152.68V96.612H150.384ZM152.792 96.416L152.148 96.304L155.144 92.692H155.914L152.792 96.416ZM157.357 102.772C157.021 102.772 156.703 102.716 156.405 102.604C156.115 102.492 155.868 102.329 155.663 102.114L156.013 101.582C156.199 101.778 156.4 101.923 156.615 102.016C156.839 102.109 157.091 102.156 157.371 102.156C157.707 102.156 158.001 102.063 158.253 101.876C158.514 101.689 158.757 101.349 158.981 100.854L159.485 99.734L159.583 99.608L162.677 92.692H163.391L159.639 100.994C159.443 101.442 159.228 101.792 158.995 102.044C158.771 102.305 158.523 102.492 158.253 102.604C157.982 102.716 157.683 102.772 157.357 102.772ZM159.471 100.182L156.083 92.692H156.825L159.905 99.566L159.471 100.182ZM165.083 100V92.692H165.783V96.024H170.739V92.692H171.439V100H170.739V96.64H165.783V100H165.083ZM179.46 99.664V93.322H175.652L175.568 95.142C175.55 95.6553 175.517 96.1687 175.47 96.682C175.424 97.186 175.349 97.6527 175.246 98.082C175.144 98.502 174.999 98.8427 174.812 99.104C174.635 99.3653 174.402 99.51 174.112 99.538L173.412 99.384C173.711 99.4027 173.954 99.2953 174.14 99.062C174.327 98.8193 174.472 98.4927 174.574 98.082C174.677 97.6713 174.752 97.2093 174.798 96.696C174.854 96.1733 174.896 95.6413 174.924 95.1L175.022 92.692H180.16V99.664H179.46ZM173.09 101.82V99.384H181.336V101.82H180.678V100H173.762V101.82H173.09ZM183.32 102.772C182.984 102.772 182.666 102.716 182.368 102.604C182.078 102.492 181.831 102.329 181.626 102.114L181.976 101.582C182.162 101.778 182.363 101.923 182.578 102.016C182.802 102.109 183.054 102.156 183.334 102.156C183.67 102.156 183.964 102.063 184.216 101.876C184.477 101.689 184.72 101.349 184.944 100.854L185.448 99.734L185.546 99.608L188.64 92.692H189.354L185.602 100.994C185.406 101.442 185.191 101.792 184.958 102.044C184.734 102.305 184.486 102.492 184.216 102.604C183.945 102.716 183.646 102.772 183.32 102.772ZM185.434 100.182L182.046 92.692H182.788L185.868 99.566L185.434 100.182ZM190.456 100.056C190.297 100.056 190.157 100 190.036 99.888C189.924 99.7667 189.868 99.622 189.868 99.454C189.868 99.286 189.924 99.146 190.036 99.034C190.157 98.922 190.297 98.866 190.456 98.866C190.614 98.866 190.75 98.922 190.862 99.034C190.983 99.146 191.044 99.286 191.044 99.454C191.044 99.622 190.983 99.7667 190.862 99.888C190.75 100 190.614 100.056 190.456 100.056ZM201.418 100.07C200.69 100.07 200.013 99.9487 199.388 99.706C198.772 99.454 198.231 99.104 197.764 98.656C197.307 98.1987 196.952 97.6713 196.7 97.074C196.448 96.4673 196.322 95.8093 196.322 95.1C196.322 94.3907 196.448 93.7373 196.7 93.14C196.952 92.5333 197.307 92.006 197.764 91.558C198.231 91.1007 198.772 90.7507 199.388 90.508C200.013 90.256 200.69 90.13 201.418 90.13C202.146 90.13 202.818 90.256 203.434 90.508C204.059 90.7507 204.601 91.096 205.058 91.544C205.515 91.992 205.87 92.5193 206.122 93.126C206.383 93.7233 206.514 94.3813 206.514 95.1C206.514 95.8187 206.383 96.4813 206.122 97.088C205.87 97.6853 205.515 98.208 205.058 98.656C204.601 99.104 204.059 99.454 203.434 99.706C202.818 99.9487 202.146 100.07 201.418 100.07ZM201.418 99.412C202.043 99.412 202.622 99.3047 203.154 99.09C203.686 98.8753 204.148 98.572 204.54 98.18C204.932 97.788 205.235 97.3307 205.45 96.808C205.674 96.2853 205.786 95.716 205.786 95.1C205.786 94.4747 205.674 93.9053 205.45 93.392C205.235 92.8693 204.932 92.412 204.54 92.02C204.148 91.628 203.686 91.3247 203.154 91.11C202.622 90.8953 202.043 90.788 201.418 90.788C200.793 90.788 200.214 90.8953 199.682 91.11C199.15 91.3247 198.683 91.628 198.282 92.02C197.89 92.412 197.582 92.8693 197.358 93.392C197.143 93.9053 197.036 94.4747 197.036 95.1C197.036 95.716 197.143 96.2853 197.358 96.808C197.582 97.3307 197.89 97.788 198.282 98.18C198.683 98.572 199.15 98.8753 199.682 99.09C200.214 99.3047 200.793 99.412 201.418 99.412ZM213.522 96.822C213.064 97.0273 212.607 97.186 212.15 97.298C211.702 97.4007 211.268 97.452 210.848 97.452C210.017 97.452 209.35 97.2607 208.846 96.878C208.342 96.486 208.09 95.9027 208.09 95.128V92.692H208.79V95.086C208.79 95.674 208.986 96.1173 209.378 96.416C209.77 96.7147 210.292 96.864 210.946 96.864C211.338 96.864 211.753 96.8127 212.192 96.71C212.63 96.6073 213.078 96.4533 213.536 96.248L213.522 96.822ZM213.452 100V92.692H214.152V100H213.452ZM220.197 100.056C219.46 100.056 218.806 99.8973 218.237 99.58C217.677 99.2627 217.234 98.824 216.907 98.264C216.59 97.704 216.431 97.0647 216.431 96.346C216.431 95.618 216.58 94.9787 216.879 94.428C217.187 93.868 217.607 93.4293 218.139 93.112C218.671 92.7947 219.268 92.636 219.931 92.636C220.594 92.636 221.186 92.79 221.709 93.098C222.241 93.406 222.656 93.84 222.955 94.4C223.263 94.9507 223.417 95.59 223.417 96.318C223.417 96.346 223.412 96.3787 223.403 96.416C223.403 96.444 223.403 96.4767 223.403 96.514H216.949V95.968H223.025L222.745 96.234C222.754 95.6647 222.633 95.156 222.381 94.708C222.138 94.2507 221.807 93.896 221.387 93.644C220.967 93.3827 220.482 93.252 219.931 93.252C219.39 93.252 218.904 93.3827 218.475 93.644C218.055 93.896 217.724 94.2507 217.481 94.708C217.238 95.156 217.117 95.6693 217.117 96.248V96.374C217.117 96.9713 217.248 97.5033 217.509 97.97C217.78 98.4273 218.148 98.7867 218.615 99.048C219.082 99.3 219.614 99.426 220.211 99.426C220.678 99.426 221.112 99.342 221.513 99.174C221.924 99.006 222.269 98.7493 222.549 98.404L222.955 98.866C222.638 99.258 222.236 99.5567 221.751 99.762C221.275 99.958 220.757 100.056 220.197 100.056ZM225.704 100V92.692H226.404V96.024H231.36V92.692H232.06V100H231.36V96.64H226.404V100H225.704ZM238.009 95.352C238.915 95.3613 239.605 95.562 240.081 95.954C240.557 96.3367 240.795 96.9013 240.795 97.648C240.795 98.4227 240.543 99.0153 240.039 99.426C239.535 99.8367 238.803 100.037 237.841 100.028L235.083 100V92.692H235.783V95.324L238.009 95.352ZM237.827 99.468C238.574 99.4773 239.134 99.328 239.507 99.02C239.89 98.712 240.081 98.2547 240.081 97.648C240.081 97.06 239.895 96.6213 239.521 96.332C239.148 96.0427 238.583 95.8933 237.827 95.884L235.783 95.87V99.44L237.827 99.468ZM246.417 100V92.692H249.497C250.3 92.692 250.935 92.8507 251.401 93.168C251.868 93.4853 252.101 93.9473 252.101 94.554C252.101 95.1513 251.873 95.604 251.415 95.912C250.967 96.22 250.384 96.374 249.665 96.374L249.861 96.164C250.72 96.164 251.35 96.3227 251.751 96.64C252.153 96.9573 252.353 97.424 252.353 98.04C252.353 98.6653 252.125 99.1507 251.667 99.496C251.219 99.832 250.524 100 249.581 100H246.417ZM247.103 99.426H249.567C250.249 99.426 250.767 99.314 251.121 99.09C251.476 98.866 251.653 98.5067 251.653 98.012C251.653 97.508 251.495 97.144 251.177 96.92C250.869 96.6867 250.37 96.57 249.679 96.57H247.103V99.426ZM247.103 96.024H249.455C250.071 96.024 250.547 95.9073 250.883 95.674C251.229 95.4407 251.401 95.0953 251.401 94.638C251.401 94.1807 251.229 93.84 250.883 93.616C250.547 93.3827 250.071 93.266 249.455 93.266H247.103V96.024ZM260.229 100L257.093 96.346L257.681 96.01L261.069 100H260.229ZM254.839 100V92.692H255.539V100H254.839ZM255.315 96.612V96.01H257.611V96.612H255.315ZM257.723 96.416L257.079 96.304L260.075 92.692H260.845L257.723 96.416ZM262.288 102.772C261.952 102.772 261.635 102.716 261.336 102.604C261.047 102.492 260.8 102.329 260.594 102.114L260.944 101.582C261.131 101.778 261.332 101.923 261.546 102.016C261.77 102.109 262.022 102.156 262.302 102.156C262.638 102.156 262.932 102.063 263.184 101.876C263.446 101.689 263.688 101.349 263.912 100.854L264.416 99.734L264.514 99.608L267.608 92.692H268.322L264.57 100.994C264.374 101.442 264.16 101.792 263.926 102.044C263.702 102.305 263.455 102.492 263.184 102.604C262.914 102.716 262.615 102.772 262.288 102.772ZM264.402 100.182L261.014 92.692H261.756L264.836 99.566L264.402 100.182ZM272.764 100.056C272.055 100.056 271.42 99.8973 270.86 99.58C270.309 99.2627 269.871 98.824 269.544 98.264C269.227 97.704 269.068 97.0647 269.068 96.346C269.068 95.618 269.227 94.974 269.544 94.414C269.871 93.854 270.309 93.42 270.86 93.112C271.42 92.7947 272.055 92.636 272.764 92.636C273.352 92.636 273.884 92.748 274.36 92.972C274.845 93.196 275.237 93.532 275.536 93.98L275.018 94.358C274.757 93.9847 274.43 93.7093 274.038 93.532C273.646 93.3547 273.221 93.266 272.764 93.266C272.195 93.266 271.681 93.3967 271.224 93.658C270.776 93.91 270.421 94.2693 270.16 94.736C269.908 95.1933 269.782 95.73 269.782 96.346C269.782 96.962 269.908 97.5033 270.16 97.97C270.421 98.4273 270.776 98.7867 271.224 99.048C271.681 99.3 272.195 99.426 272.764 99.426C273.221 99.426 273.646 99.3373 274.038 99.16C274.43 98.9827 274.757 98.7073 275.018 98.334L275.536 98.712C275.237 99.16 274.845 99.496 274.36 99.72C273.884 99.944 273.352 100.056 272.764 100.056ZM277.603 100V92.692H278.303V96.024H283.259V92.692H283.959V100H283.259V96.64H278.303V100H277.603ZM289.894 100.056C289.194 100.056 288.568 99.8973 288.018 99.58C287.476 99.2627 287.042 98.824 286.716 98.264C286.398 97.704 286.24 97.0647 286.24 96.346C286.24 95.618 286.398 94.9787 286.716 94.428C287.042 93.868 287.476 93.4293 288.018 93.112C288.568 92.7947 289.194 92.636 289.894 92.636C290.594 92.636 291.219 92.7947 291.77 93.112C292.32 93.4293 292.754 93.868 293.072 94.428C293.389 94.9787 293.548 95.618 293.548 96.346C293.548 97.0647 293.389 97.704 293.072 98.264C292.754 98.824 292.32 99.2627 291.77 99.58C291.219 99.8973 290.594 100.056 289.894 100.056ZM289.894 99.426C290.454 99.426 290.958 99.3 291.406 99.048C291.854 98.7867 292.204 98.4227 292.456 97.956C292.708 97.4893 292.834 96.9527 292.834 96.346C292.834 95.73 292.708 95.1933 292.456 94.736C292.204 94.2693 291.854 93.91 291.406 93.658C290.958 93.3967 290.454 93.266 289.894 93.266C289.334 93.266 288.83 93.3967 288.382 93.658C287.943 93.91 287.593 94.2693 287.332 94.736C287.08 95.1933 286.954 95.73 286.954 96.346C286.954 96.9527 287.08 97.4893 287.332 97.956C287.593 98.4227 287.943 98.7867 288.382 99.048C288.83 99.3 289.334 99.426 289.894 99.426ZM295.813 97.186L295.673 90.2H296.485L296.345 97.186H295.813ZM296.079 100.056C295.921 100.056 295.785 100 295.673 99.888C295.561 99.7667 295.505 99.6313 295.505 99.482C295.505 99.3233 295.561 99.188 295.673 99.076C295.785 98.964 295.921 98.908 296.079 98.908C296.247 98.908 296.387 98.964 296.499 99.076C296.611 99.188 296.667 99.3233 296.667 99.482C296.667 99.6313 296.611 99.7667 296.499 99.888C296.387 100 296.247 100.056 296.079 100.056ZM107.859 122V112.2H114.845V112.83H108.573V116.358H111.891C113.039 116.358 113.911 116.591 114.509 117.058C115.106 117.525 115.405 118.211 115.405 119.116C115.405 120.059 115.087 120.777 114.453 121.272C113.827 121.757 112.908 122 111.695 122H107.859ZM108.573 121.398H111.709C112.689 121.398 113.431 121.211 113.935 120.838C114.439 120.455 114.691 119.891 114.691 119.144C114.691 117.679 113.697 116.946 111.709 116.946H108.573V121.398ZM117.421 124.772C117.085 124.772 116.768 124.716 116.469 124.604C116.18 124.492 115.932 124.329 115.727 124.114L116.077 123.582C116.264 123.778 116.464 123.923 116.679 124.016C116.903 124.109 117.155 124.156 117.435 124.156C117.771 124.156 118.065 124.063 118.317 123.876C118.578 123.689 118.821 123.349 119.045 122.854L119.549 121.734L119.647 121.608L122.741 114.692H123.455L119.703 122.994C119.507 123.442 119.292 123.792 119.059 124.044C118.835 124.305 118.588 124.492 118.317 124.604C118.046 124.716 117.748 124.772 117.421 124.772ZM119.535 122.182L116.147 114.692H116.889L119.969 121.566L119.535 122.182ZM129.886 121.664V115.322H126.078L125.994 117.142C125.975 117.655 125.943 118.169 125.896 118.682C125.849 119.186 125.775 119.653 125.672 120.082C125.569 120.502 125.425 120.843 125.238 121.104C125.061 121.365 124.827 121.51 124.538 121.538L123.838 121.384C124.137 121.403 124.379 121.295 124.566 121.062C124.753 120.819 124.897 120.493 125 120.082C125.103 119.671 125.177 119.209 125.224 118.696C125.28 118.173 125.322 117.641 125.35 117.1L125.448 114.692H130.586V121.664H129.886ZM123.516 123.82V121.384H131.762V123.82H131.104V122H124.188V123.82H123.516ZM133.745 124.772C133.409 124.772 133.092 124.716 132.793 124.604C132.504 124.492 132.257 124.329 132.051 124.114L132.401 123.582C132.588 123.778 132.789 123.923 133.003 124.016C133.227 124.109 133.479 124.156 133.759 124.156C134.095 124.156 134.389 124.063 134.641 123.876C134.903 123.689 135.145 123.349 135.369 122.854L135.873 121.734L135.971 121.608L139.065 114.692H139.779L136.027 122.994C135.831 123.442 135.617 123.792 135.383 124.044C135.159 124.305 134.912 124.492 134.641 124.604C134.371 124.716 134.072 124.772 133.745 124.772ZM135.859 122.182L132.471 114.692H133.213L136.293 121.566L135.859 122.182ZM145.068 122V114.692H151.452V122H150.752V115.112L150.948 115.322H145.572L145.768 115.112V122H145.068ZM157.386 122.056C156.686 122.056 156.061 121.897 155.51 121.58C154.969 121.263 154.535 120.824 154.208 120.264C153.891 119.704 153.732 119.065 153.732 118.346C153.732 117.618 153.891 116.979 154.208 116.428C154.535 115.868 154.969 115.429 155.51 115.112C156.061 114.795 156.686 114.636 157.386 114.636C158.086 114.636 158.711 114.795 159.262 115.112C159.813 115.429 160.247 115.868 160.564 116.428C160.881 116.979 161.04 117.618 161.04 118.346C161.04 119.065 160.881 119.704 160.564 120.264C160.247 120.824 159.813 121.263 159.262 121.58C158.711 121.897 158.086 122.056 157.386 122.056ZM157.386 121.426C157.946 121.426 158.45 121.3 158.898 121.048C159.346 120.787 159.696 120.423 159.948 119.956C160.2 119.489 160.326 118.953 160.326 118.346C160.326 117.73 160.2 117.193 159.948 116.736C159.696 116.269 159.346 115.91 158.898 115.658C158.45 115.397 157.946 115.266 157.386 115.266C156.826 115.266 156.322 115.397 155.874 115.658C155.435 115.91 155.085 116.269 154.824 116.736C154.572 117.193 154.446 117.73 154.446 118.346C154.446 118.953 154.572 119.489 154.824 119.956C155.085 120.423 155.435 120.787 155.874 121.048C156.322 121.3 156.826 121.426 157.386 121.426ZM168.71 122L165.574 118.346L166.162 118.01L169.55 122H168.71ZM163.32 122V114.692H164.02V122H163.32ZM163.796 118.612V118.01H166.092V118.612H163.796ZM166.204 118.416L165.56 118.304L168.556 114.692H169.326L166.204 118.416ZM170.769 124.772C170.433 124.772 170.115 124.716 169.817 124.604C169.527 124.492 169.28 124.329 169.075 124.114L169.425 123.582C169.611 123.778 169.812 123.923 170.027 124.016C170.251 124.109 170.503 124.156 170.783 124.156C171.119 124.156 171.413 124.063 171.665 123.876C171.926 123.689 172.169 123.349 172.393 122.854L172.897 121.734L172.995 121.608L176.089 114.692H176.803L173.051 122.994C172.855 123.442 172.64 123.792 172.407 124.044C172.183 124.305 171.935 124.492 171.665 124.604C171.394 124.716 171.095 124.772 170.769 124.772ZM172.883 122.182L169.495 114.692H170.237L173.317 121.566L172.883 122.182ZM178.495 122V114.692H184.879V122H184.179V115.112L184.375 115.322H178.999L179.195 115.112V122H178.495ZM192.466 122V120.334L192.438 120.082V117.338C192.438 116.657 192.251 116.139 191.878 115.784C191.514 115.429 190.977 115.252 190.268 115.252C189.764 115.252 189.292 115.341 188.854 115.518C188.424 115.686 188.056 115.905 187.748 116.176L187.398 115.672C187.762 115.345 188.2 115.093 188.714 114.916C189.227 114.729 189.764 114.636 190.324 114.636C191.229 114.636 191.924 114.865 192.41 115.322C192.895 115.779 193.138 116.461 193.138 117.366V122H192.466ZM189.834 122.056C189.292 122.056 188.821 121.972 188.42 121.804C188.028 121.627 187.724 121.379 187.51 121.062C187.304 120.745 187.202 120.381 187.202 119.97C187.202 119.597 187.286 119.261 187.454 118.962C187.631 118.654 187.92 118.407 188.322 118.22C188.723 118.024 189.26 117.926 189.932 117.926H192.62V118.472H189.946C189.19 118.472 188.658 118.612 188.35 118.892C188.051 119.172 187.902 119.522 187.902 119.942C187.902 120.409 188.079 120.782 188.434 121.062C188.788 121.342 189.288 121.482 189.932 121.482C190.548 121.482 191.066 121.342 191.486 121.062C191.915 120.782 192.232 120.376 192.438 119.844L192.634 120.32C192.438 120.852 192.102 121.277 191.626 121.594C191.159 121.902 190.562 122.056 189.834 122.056ZM197.312 122V115.112L197.508 115.322H194.456V114.692H200.868V115.322H197.816L198.012 115.112V122H197.312ZM205.292 117.352C206.198 117.361 206.888 117.562 207.364 117.954C207.84 118.337 208.078 118.901 208.078 119.648C208.078 120.423 207.826 121.015 207.322 121.426C206.818 121.837 206.086 122.037 205.124 122.028L202.366 122V114.692H203.066V117.324L205.292 117.352ZM205.11 121.468C205.857 121.477 206.417 121.328 206.79 121.02C207.173 120.712 207.364 120.255 207.364 119.648C207.364 119.06 207.178 118.621 206.804 118.332C206.431 118.043 205.866 117.893 205.11 117.884L203.066 117.87V121.44L205.11 121.468ZM216.724 122.056C215.987 122.056 215.334 121.897 214.764 121.58C214.204 121.263 213.761 120.824 213.434 120.264C213.117 119.704 212.958 119.065 212.958 118.346C212.958 117.618 213.108 116.979 213.406 116.428C213.714 115.868 214.134 115.429 214.666 115.112C215.198 114.795 215.796 114.636 216.458 114.636C217.121 114.636 217.714 114.79 218.236 115.098C218.768 115.406 219.184 115.84 219.482 116.4C219.79 116.951 219.944 117.59 219.944 118.318C219.944 118.346 219.94 118.379 219.93 118.416C219.93 118.444 219.93 118.477 219.93 118.514H213.476V117.968H219.552L219.272 118.234C219.282 117.665 219.16 117.156 218.908 116.708C218.666 116.251 218.334 115.896 217.914 115.644C217.494 115.383 217.009 115.252 216.458 115.252C215.917 115.252 215.432 115.383 215.002 115.644C214.582 115.896 214.251 116.251 214.008 116.708C213.766 117.156 213.644 117.669 213.644 118.248V118.374C213.644 118.971 213.775 119.503 214.036 119.97C214.307 120.427 214.676 120.787 215.142 121.048C215.609 121.3 216.141 121.426 216.738 121.426C217.205 121.426 217.639 121.342 218.04 121.174C218.451 121.006 218.796 120.749 219.076 120.404L219.482 120.866C219.165 121.258 218.764 121.557 218.278 121.762C217.802 121.958 217.284 122.056 216.724 122.056ZM226.978 121.384L226.81 121.594V114.692H227.51V121.594L227.3 121.384H231.556L231.36 121.594V114.692H232.06V122H222.232V114.692H222.932V121.594L222.736 121.384H226.978ZM232.536 123.652V121.79L232.732 122H231.304V121.384H233.208V123.652H232.536ZM238.107 122.056C237.37 122.056 236.717 121.897 236.147 121.58C235.587 121.263 235.144 120.824 234.817 120.264C234.5 119.704 234.341 119.065 234.341 118.346C234.341 117.618 234.491 116.979 234.789 116.428C235.097 115.868 235.517 115.429 236.049 115.112C236.581 114.795 237.179 114.636 237.841 114.636C238.504 114.636 239.097 114.79 239.619 115.098C240.151 115.406 240.567 115.84 240.865 116.4C241.173 116.951 241.327 117.59 241.327 118.318C241.327 118.346 241.323 118.379 241.313 118.416C241.313 118.444 241.313 118.477 241.313 118.514H234.859V117.968H240.935L240.655 118.234C240.665 117.665 240.543 117.156 240.291 116.708C240.049 116.251 239.717 115.896 239.297 115.644C238.877 115.383 238.392 115.252 237.841 115.252C237.3 115.252 236.815 115.383 236.385 115.644C235.965 115.896 235.634 116.251 235.391 116.708C235.149 117.156 235.027 117.669 235.027 118.248V118.374C235.027 118.971 235.158 119.503 235.419 119.97C235.69 120.427 236.059 120.787 236.525 121.048C236.992 121.3 237.524 121.426 238.121 121.426C238.588 121.426 239.022 121.342 239.423 121.174C239.834 121.006 240.179 120.749 240.459 120.404L240.865 120.866C240.548 121.258 240.147 121.557 239.661 121.762C239.185 121.958 238.667 122.056 238.107 122.056ZM239.045 113.124C238.915 113.124 238.798 113.077 238.695 112.984C238.593 112.881 238.541 112.76 238.541 112.62C238.541 112.471 238.593 112.349 238.695 112.256C238.798 112.163 238.915 112.116 239.045 112.116C239.185 112.116 239.302 112.163 239.395 112.256C239.498 112.349 239.549 112.471 239.549 112.62C239.549 112.76 239.498 112.881 239.395 112.984C239.302 113.077 239.185 113.124 239.045 113.124ZM236.637 113.124C236.497 113.124 236.376 113.077 236.273 112.984C236.18 112.881 236.133 112.76 236.133 112.62C236.133 112.471 236.18 112.349 236.273 112.256C236.376 112.163 236.497 112.116 236.637 112.116C236.777 112.116 236.894 112.163 236.987 112.256C237.09 112.349 237.141 112.471 237.141 112.62C237.141 112.76 237.09 112.881 236.987 112.984C236.894 113.077 236.777 113.124 236.637 113.124ZM243.503 122.056C243.344 122.056 243.204 122 243.083 121.888C242.971 121.767 242.915 121.622 242.915 121.454C242.915 121.286 242.971 121.146 243.083 121.034C243.204 120.922 243.344 120.866 243.503 120.866C243.661 120.866 243.797 120.922 243.909 121.034C244.03 121.146 244.091 121.286 244.091 121.454C244.091 121.622 244.03 121.767 243.909 121.888C243.797 122 243.661 122.056 243.503 122.056Z" fill="#9F8B75"/>
<path d="M158.918 167.168C158.143 167.168 157.424 167.042 156.762 166.79C156.108 166.538 155.539 166.183 155.054 165.726C154.578 165.269 154.204 164.732 153.934 164.116C153.672 163.5 153.542 162.828 153.542 162.1C153.542 161.372 153.672 160.7 153.934 160.084C154.204 159.468 154.582 158.931 155.068 158.474C155.553 158.017 156.122 157.662 156.776 157.41C157.429 157.158 158.138 157.032 158.904 157.032C159.678 157.032 160.388 157.158 161.032 157.41C161.685 157.662 162.25 158.017 162.726 158.474C163.211 158.931 163.589 159.468 163.86 160.084C164.13 160.691 164.266 161.363 164.266 162.1C164.266 162.828 164.13 163.505 163.86 164.13C163.589 164.746 163.211 165.283 162.726 165.74C162.25 166.188 161.685 166.538 161.032 166.79C160.388 167.042 159.683 167.168 158.918 167.168ZM158.904 165.236C159.342 165.236 159.744 165.161 160.108 165.012C160.481 164.863 160.808 164.648 161.088 164.368C161.368 164.088 161.582 163.757 161.732 163.374C161.89 162.991 161.97 162.567 161.97 162.1C161.97 161.633 161.89 161.209 161.732 160.826C161.582 160.443 161.368 160.112 161.088 159.832C160.817 159.552 160.495 159.337 160.122 159.188C159.748 159.039 159.342 158.964 158.904 158.964C158.465 158.964 158.059 159.039 157.686 159.188C157.322 159.337 157 159.552 156.72 159.832C156.44 160.112 156.22 160.443 156.062 160.826C155.912 161.209 155.838 161.633 155.838 162.1C155.838 162.557 155.912 162.982 156.062 163.374C156.22 163.757 156.435 164.088 156.706 164.368C156.986 164.648 157.312 164.863 157.686 165.012C158.059 165.161 158.465 165.236 158.904 165.236ZM164.647 166.986L164.759 165.194C164.815 165.203 164.871 165.213 164.927 165.222C164.983 165.222 165.034 165.222 165.081 165.222C165.342 165.222 165.547 165.147 165.697 164.998C165.846 164.849 165.958 164.648 166.033 164.396C166.107 164.135 166.159 163.841 166.187 163.514C166.224 163.187 166.252 162.847 166.271 162.492L166.383 159.468H172.823V167H170.639V160.728L171.129 161.26H167.825L168.287 160.7L168.189 162.59C168.161 163.262 168.105 163.878 168.021 164.438C167.946 164.998 167.82 165.483 167.643 165.894C167.465 166.295 167.227 166.608 166.929 166.832C166.63 167.047 166.247 167.154 165.781 167.154C165.613 167.154 165.435 167.14 165.249 167.112C165.062 167.084 164.861 167.042 164.647 166.986ZM178.997 161.876C179.986 161.885 180.738 162.109 181.251 162.548C181.774 162.977 182.035 163.589 182.035 164.382C182.035 165.213 181.741 165.861 181.153 166.328C180.565 166.785 179.748 167.014 178.703 167.014L174.923 167V159.468H177.093V161.876H178.997ZM178.507 165.46C178.927 165.469 179.249 165.381 179.473 165.194C179.697 165.007 179.809 164.727 179.809 164.354C179.809 163.981 179.697 163.715 179.473 163.556C179.249 163.388 178.927 163.299 178.507 163.29L177.093 163.276V165.46H178.507ZM183.4 167V159.468H189.434V161.26H185.08L185.57 160.784V167H183.4ZM195.099 167V165.53L194.959 165.208V162.576C194.959 162.109 194.814 161.745 194.525 161.484C194.245 161.223 193.811 161.092 193.223 161.092C192.822 161.092 192.425 161.157 192.033 161.288C191.65 161.409 191.324 161.577 191.053 161.792L190.269 160.266C190.68 159.977 191.174 159.753 191.753 159.594C192.332 159.435 192.92 159.356 193.517 159.356C194.665 159.356 195.556 159.627 196.191 160.168C196.826 160.709 197.143 161.554 197.143 162.702V167H195.099ZM192.803 167.112C192.215 167.112 191.711 167.014 191.291 166.818C190.871 166.613 190.549 166.337 190.325 165.992C190.101 165.647 189.989 165.259 189.989 164.83C189.989 164.382 190.096 163.99 190.311 163.654C190.535 163.318 190.885 163.057 191.361 162.87C191.837 162.674 192.458 162.576 193.223 162.576H195.225V163.85H193.461C192.948 163.85 192.593 163.934 192.397 164.102C192.21 164.27 192.117 164.48 192.117 164.732C192.117 165.012 192.224 165.236 192.439 165.404C192.663 165.563 192.966 165.642 193.349 165.642C193.713 165.642 194.04 165.558 194.329 165.39C194.618 165.213 194.828 164.956 194.959 164.62L195.295 165.628C195.136 166.113 194.847 166.482 194.427 166.734C194.007 166.986 193.466 167.112 192.803 167.112Z" fill="#9F8B75"/>
<g filter="url(#filter1_d_159_31)">
<ellipse cx="176" cy="302.951" rx="50" ry="48.951" fill="#D9D9D9"/>
</g>
<defs>
<filter id="filter0_d_159_31" x="0" y="0" width="360" height="311" filterUnits="userSpaceOnUse" color-interpolation-filters="sRGB">
<feFlood flood-opacity="0" result="BackgroundImageFix"/>
<feColorMatrix in="SourceAlpha" type="matrix" values="0 0 0 0 0 0 0 0 0 0 0 0 0 0 0 0 0 0 127 0" result="hardAlpha"/>
<feOffset dx="4" dy="4"/>
<feGaussianBlur stdDeviation="2"/>
<feComposite in2="hardAlpha" operator="out"/>
<feColorMatrix type="matrix" values="0 0 0 0 0 0 0 0 0 0 0 0 0 0 0 0 0 0 0.25 0"/>
<feBlend mode="normal" in2="BackgroundImageFix" result="effect1_dropShadow_159_31"/>
<feBlend mode="normal" in="SourceGraphic" in2="effect1_dropShadow_159_31" result="shape"/>
</filter>
<filter id="filter1_d_159_31" x="126" y="254" width="108" height="105.902" filterUnits="userSpaceOnUse" color-interpolation-filters="sRGB">
<feFlood flood-opacity="0" result="BackgroundImageFix"/>
<feColorMatrix in="SourceAlpha" type="matrix" values="0 0 0 0 0 0 0 0 0 0 0 0 0 0 0 0 0 0 127 0" result="hardAlpha"/>
<feOffset dx="4" dy="4"/>
<feGaussianBlur stdDeviation="2"/>
<feComposite in2="hardAlpha" operator="out"/>
<feColorMatrix type="matrix" values="0 0 0 0 0 0 0 0 0 0 0 0 0 0 0 0 0 0 0.25 0"/>
<feBlend mode="normal" in2="BackgroundImageFix" result="effect1_dropShadow_159_31"/>
<feBlend mode="normal" in="SourceGraphic" in2="effect1_dropShadow_159_31" result="shape"/>
</filter>
</defs>
</svg>
